<svg xmlns:xlink="http://www.w3.org/1999/xlink" xmlns="http://www.w3.org/2000/svg" viewBox="0 0 110.1 110" width="110"
    height="110">
    <path class="fill-neutral-800 transition-colors group-hover:fill-white"
        d="M38.3,25.8c-1.3,2.7,6.7,6.8,7.9,8.4,0,2-4.1,10-1.5,11.4,2.1,2.1,8.6-4.3,10.4-4.9,1.9.7,8.2,7,10.4,4.9,2.6-1.4-1.4-9.5-1.5-11.4,1.2-1.6,9.2-5.7,7.9-8.4-.5-2.9-9.4-1.6-11.3-2.1-1.1-1.6-2.6-10.5-5.5-10.1-2.9-.4-4.4,8.5-5.5,10.1-1.9.6-10.8-.8-11.3,2.1ZM50.4,27.1c2.7.2,3.7-6.7,4.7-8.2,3.3,9.2,2.1,8.3,11.8,8.6-7.7,6-7.2,4.5-4.5,13.9-8.1-5.5-6.5-5.5-14.6,0,2.7-9.4,3.2-7.9-4.5-13.9l7.1-.3ZM53.4,8V1.7c0-2.2,3.5-2.2,3.4,0,0,0,0,6.3,0,6.3,0,2.2-3.5,2.2-3.4,0ZM63.8,18.2c-2.4-2.1,6.4-7.4,7.2-8.8.7-.6,1.8-.6,2.4.1,2.4,2.1-6.4,7.4-7.2,8.8-.7.6-1.8.6-2.4-.1ZM36.8,9.6c1.9-2.6,8,5.6,9.5,6.2.7.6.8,1.7.1,2.4-1.9,2.6-8-5.6-9.5-6.2-.7-.6-.8-1.7-.1-2.4ZM77.1,28.5l7.1,5.7c0,2-4.1,10-1.5,11.4,2.1,2.1,8.6-4.3,10.4-4.9,1.9.7,8.2,7,10.4,4.9,2.6-1.4-1.4-9.5-1.5-11.4,1.2-1.6,9.2-5.7,7.9-8.4-.5-2.9-9.4-1.6-11.3-2.1-1.1-1.6-2.6-10.5-5.5-10.1-2.9-.4-4.4,8.5-5.5,10.1-2.5.5-15.1-1.1-10.5,4.8ZM88.5,27.1c2.7.2,3.7-6.7,4.7-8.2,3.3,9.2,2.1,8.3,11.8,8.6-7.7,6-7.2,4.5-4.5,13.9-8.1-5.5-6.5-5.5-14.6,0,2.7-9.4,3.2-7.9-4.5-13.9l7.1-.3ZM1,28.5l7.1,5.7c0,2-4.1,10-1.5,11.4,2.1,2.1,8.6-4.3,10.4-4.9,1.9.7,8.2,7,10.4,4.9,2.6-1.4-1.4-9.5-1.5-11.4,1.2-1.6,9.2-5.7,7.9-8.4-.5-2.9-9.4-1.6-11.3-2.1-1.1-1.6-2.6-10.5-5.5-10.1-2.9-.4-4.4,8.5-5.5,10.1-2.5.5-15.1-1.1-10.5,4.8ZM12.3,27.1c2.7.2,3.7-6.7,4.7-8.2,3.3,9.2,2.1,8.3,11.8,8.6-7.7,6-7.2,4.5-4.5,13.9-8.1-5.5-6.5-5.5-14.6,0,2.7-9.4,3.2-7.9-4.5-13.9l7.1-.3ZM109.8,91.3c-1.8-5.8-6.4-10.6-12.1-12.6,7.9-5.8,3.4-19.5-6.6-19.2-10-.3-14.6,13.4-6.6,19.2-3.4,1.2-6.3,3.3-8.6,6.1-3.2-4.5-8-8-13.2-9.6,11.2-6.8,5.8-25.7-7.6-25.3-13.4-.5-18.8,18.5-7.6,25.3-5.2,1.6-10,5.1-13.2,9.6-2.3-2.8-5.2-4.9-8.6-6.1,7.9-5.8,3.3-19.5-6.6-19.2-10-.3-14.6,13.4-6.6,19.2-6.4,2.3-15.1,10.6-11.2,17.8,2,4.5,24.7,1.6,28.4,2.4-.8,5.4,2,11.3,8.1,11.2,0,0,34.7,0,34.7,0,6,0,8.9-5.8,8.1-11.2h23.8c3.8.1,6.8-3.9,5.5-7.5ZM91.1,62.9c9.5-.1,9.5,14.7,0,14.6-9.5.1-9.5-14.7,0-14.6ZM44.7,63.7c0-13.5,20.6-13.5,20.7,0,0,13.5-20.6,13.5-20.7,0ZM19,62.9c9.5-.1,9.5,14.7,0,14.6-9.5.1-9.5-14.7,0-14.6ZM29.9,95.4c-.8-.3-26.6.9-25.9-1-.9-13.9,21.7-18.2,28.3-6.4-1.2,2.3-2,4.8-2.5,7.4ZM77.1,101.9c0,2.6-2.1,4.7-4.7,4.7h-34.7c-5,0-4.9-5.8-4.7-9.4,3.7-28.7,46.5-24.2,44,4.7ZM106.2,94.4c0,2-24.8.5-25.9,1-.4-2.6-1.3-5.1-2.5-7.4,6.6-11.8,29.2-7.5,28.3,6.4Z"
        fill="#0f3360"></path>
</svg>