<svg width="120" height="120" fill="none" xmlns="http://www.w3.org/2000/svg">
    <path
        d="M91.051 28.553c-2.58-6.712-7.034-12.463-12.918-16.667C71.918 7.446 64.586 5.1 56.926 5.1a36.52 36.52 0 00-27.702 12.72 1.613 1.613 0 102.445 2.105 33.298 33.298 0 0125.257-11.6c13.98 0 26.575 8.84 31.342 21.995a2.208 2.208 0 002.075 1.449h.003c11.926 0 21.628 9.717 21.628 21.66a21.579 21.579 0 01-5.924 14.891 1.613 1.613 0 002.343 2.217A24.793 24.793 0 00115.2 53.43c0-13.485-10.766-24.499-24.149-24.877zM61.655 103.598v-3.451a1.613 1.613 0 00-3.225 0v3.451a5.923 5.923 0 00-4.301 5.688 5.92 5.92 0 005.913 5.914 5.92 5.92 0 005.914-5.914 5.923 5.923 0 00-4.3-5.688zm-1.613 8.376a2.69 2.69 0 01-2.688-2.688 2.691 2.691 0 012.688-2.688 2.691 2.691 0 012.688 2.688 2.69 2.69 0 01-2.688 2.688zM46.494 88.213c-.89 0-1.612.722-1.612 1.612v8.71a1.4 1.4 0 01-1.398 1.397H40.57a5.923 5.923 0 00-5.689-4.3 5.92 5.92 0 00-5.913 5.913 5.92 5.92 0 005.913 5.914 5.923 5.923 0 005.689-4.301h2.913a4.629 4.629 0 004.623-4.624v-8.709c0-.89-.722-1.612-1.613-1.612zm-11.612 16.02a2.691 2.691 0 01-2.688-2.688 2.691 2.691 0 012.688-2.688 2.691 2.691 0 012.688 2.688 2.691 2.691 0 01-2.688 2.688z"
        fill="#FAFAFA" />
    <path
        d="M98.534 83.59a5.923 5.923 0 00-5.688 4.3h-2.913a1.4 1.4 0 01-1.398-1.398V78.21c2.612-.002 4.13-.007 4.221-.015a24.6 24.6 0 009.169-2.745 1.614 1.614 0 00-1.505-2.853 21.4 21.4 0 01-7.923 2.382c-.359.006-2.383.009-5.573.009h-.002-.002c-12.8-.001-44.38-.047-62.757-.078-3.073-.005-5.979-.835-8.402-2.4a16.178 16.178 0 01-7.436-13.644c0-7.94 5.664-14.664 13.468-15.991a2.195 2.195 0 001.816-2.104c.145-5.284 1.486-10.308 3.986-14.933a1.613 1.613 0 00-2.837-1.534 36.18 36.18 0 00-4.342 15.551C11.491 41.772 5.1 49.635 5.1 58.865a19.39 19.39 0 008.912 16.356c2.944 1.9 6.452 2.908 10.145 2.915l7.392.012v8.344a1.4 1.4 0 01-1.397 1.398h-2.914a5.923 5.923 0 00-5.688-4.3 5.92 5.92 0 00-5.914 5.913 5.92 5.92 0 005.914 5.913 5.923 5.923 0 005.688-4.3h2.914a4.629 4.629 0 004.623-4.624v-8.339l10.107.016v4.13a1.613 1.613 0 103.225 0v-4.126l10.322.015V92.62a1.613 1.613 0 103.226 0V78.19c3.643.005 7.111.01 10.322.012v20.331a4.629 4.629 0 004.623 4.624h2.913a5.923 5.923 0 005.689 4.301 5.92 5.92 0 005.913-5.914 5.92 5.92 0 00-5.913-5.914 5.923 5.923 0 00-5.689 4.301H76.6a1.4 1.4 0 01-1.398-1.398V78.206c3.91.004 7.34.005 10.105.005h.002v8.281a4.629 4.629 0 004.624 4.624h2.913a5.923 5.923 0 005.688 4.3 5.92 5.92 0 005.914-5.913 5.92 5.92 0 00-5.914-5.914zm-76.984 8.6a2.69 2.69 0 01-2.688-2.687 2.69 2.69 0 012.688-2.688 2.69 2.69 0 012.688 2.688 2.69 2.69 0 01-2.688 2.688zm63.652 6.667a2.691 2.691 0 012.688 2.688 2.691 2.691 0 01-2.688 2.688 2.691 2.691 0 01-2.688-2.688 2.691 2.691 0 012.688-2.688zm13.332-6.666a2.69 2.69 0 01-2.688-2.688 2.69 2.69 0 012.688-2.688 2.691 2.691 0 012.688 2.688 2.691 2.691 0 01-2.688 2.688z"
        fill="#FAFAFA" />
</svg>